<svg width="40" height="40" viewBox="0 0 40 40" fill="none" xmlns="http://www.w3.org/2000/svg">
<rect width="40" height="40" rx="6" fill="#FFD23D" fill-opacity="0.5"/>
<path d="M24.247 15.7611C25.37 16.886 26.0007 18.4106 26.0007 20.0001C26.0007 21.5896 25.37 23.1142 24.247 24.2391M27.075 12.9331C28.9479 14.8081 29.9999 17.3499 29.9999 20.0001C29.9999 22.6503 28.9479 25.1921 27.075 27.0671M12.925 27.0671C11.0521 25.1921 10.0001 22.6503 10.0001 20.0001C10.0001 17.3499 11.0521 14.8081 12.925 12.9331M15.753 24.2391C14.63 23.1142 13.9993 21.5896 13.9993 20.0001C13.9993 18.4106 14.63 16.886 15.753 15.7611M22 20.0001C22 21.1047 21.1046 22.0001 20 22.0001C18.8954 22.0001 18 21.1047 18 20.0001C18 18.8955 18.8954 18.0001 20 18.0001C21.1046 18.0001 22 18.8955 22 20.0001Z" stroke="#876B0E" stroke-width="2" stroke-linecap="round" stroke-linejoin="round"/>
</svg>
