<svg width="40" height="40" viewBox="0 0 40 40" fill="none" xmlns="http://www.w3.org/2000/svg">
<rect width="40" height="40" rx="6" fill="#FFD23D" fill-opacity="0.5"/>
<path d="M24 27H30M24 10V14M27 24V30M29 20.598V14C29 13.4696 28.7893 12.9609 28.4142 12.5858C28.0391 12.2107 27.5304 12 27 12H13C12.4696 12 11.9609 12.2107 11.5858 12.5858C11.2107 12.9609 11 13.4696 11 14V28C11 28.5304 11.2107 29.0391 11.5858 29.4142C11.9609 29.7893 12.4696 30 13 30H21.5M11 18H29M16 10V14" stroke="#876B0E" stroke-width="2" stroke-linecap="round" stroke-linejoin="round"/>
</svg>
