<svg width="40" height="40" viewBox="0 0 40 40" fill="none" xmlns="http://www.w3.org/2000/svg">
<rect width="40" height="40" rx="6" fill="#FFD23D" fill-opacity="0.5"/>
<path d="M24 10V12M15 30V28C15 27.4696 15.2107 26.9609 15.5858 26.5858C15.9609 26.2107 16.4696 26 17 26H23C23.5304 26 24.0391 26.2107 24.4142 26.5858C24.7893 26.9609 25 27.4696 25 28V30M16 10V12M23 19C23 20.6569 21.6569 22 20 22C18.3431 22 17 20.6569 17 19C17 17.3431 18.3431 16 20 16C21.6569 16 23 17.3431 23 19ZM13 12H27C28.1046 12 29 12.8954 29 14V28C29 29.1046 28.1046 30 27 30H13C11.8954 30 11 29.1046 11 28V14C11 12.8954 11.8954 12 13 12Z" stroke="#876B0E" stroke-width="2" stroke-linecap="round" stroke-linejoin="round"/>
</svg>
