<svg width="20" height="20" viewBox="0 0 20 20" fill="none" xmlns="http://www.w3.org/2000/svg">
<g clip-path="url(#clip0_105_1369)">
<path d="M14.1666 1.6665H5.83329C3.53211 1.6665 1.66663 3.53198 1.66663 5.83317V14.1665C1.66663 16.4677 3.53211 18.3332 5.83329 18.3332H14.1666C16.4678 18.3332 18.3333 16.4677 18.3333 14.1665V5.83317C18.3333 3.53198 16.4678 1.6665 14.1666 1.6665Z" stroke="#FFD23D" stroke-width="1.66667" stroke-linecap="round" stroke-linejoin="round"/>
<path d="M14.5833 5.4165H14.5916M13.3333 9.47484C13.4361 10.1684 13.3176 10.8767 12.9947 11.499C12.6718 12.1213 12.1609 12.626 11.5346 12.9412C10.9083 13.2564 10.1986 13.3662 9.50641 13.2548C8.81419 13.1434 8.17472 12.8166 7.67895 12.3208C7.18318 11.825 6.85636 11.1856 6.74497 10.4933C6.63359 9.80113 6.74331 9.09142 7.05852 8.46515C7.37374 7.83888 7.87841 7.32795 8.50074 7.00504C9.12307 6.68212 9.83138 6.56366 10.5249 6.6665C11.2324 6.77141 11.8873 7.10106 12.393 7.60676C12.8987 8.11246 13.2283 8.7674 13.3333 9.47484Z" stroke="#FFD23D" stroke-width="1.66667" stroke-linecap="round" stroke-linejoin="round"/>
</g>
<defs>
<clipPath id="clip0_105_1369">
<rect width="20" height="20" fill="white"/>
</clipPath>
</defs>
</svg>
