<svg width="25" height="24" viewBox="0 0 25 24" fill="none" xmlns="http://www.w3.org/2000/svg">
<path d="M16.5 3C15.9696 3 15.4609 3.21071 15.0858 3.58579C14.7107 3.96086 14.5 4.46957 14.5 5V11C14.5 11.5304 14.7107 12.0391 15.0858 12.4142C15.4609 12.7893 15.9696 13 16.5 13C16.7652 13 17.0196 13.1054 17.2071 13.2929C17.3946 13.4804 17.5 13.7348 17.5 14V15C17.5 15.5304 17.2893 16.0391 16.9142 16.4142C16.5391 16.7893 16.0304 17 15.5 17C15.2348 17 14.9804 17.1054 14.7929 17.2929C14.6054 17.4804 14.5 17.7348 14.5 18V20C14.5 20.2652 14.6054 20.5196 14.7929 20.7071C14.9804 20.8946 15.2348 21 15.5 21C17.0913 21 18.6174 20.3679 19.7426 19.2426C20.8679 18.1174 21.5 16.5913 21.5 15V5C21.5 4.46957 21.2893 3.96086 20.9142 3.58579C20.5391 3.21071 20.0304 3 19.5 3H16.5Z" stroke="white" stroke-width="2" stroke-linecap="round" stroke-linejoin="round"/>
<path d="M5.5 3C4.96957 3 4.46086 3.21071 4.08579 3.58579C3.71071 3.96086 3.5 4.46957 3.5 5V11C3.5 11.5304 3.71071 12.0391 4.08579 12.4142C4.46086 12.7893 4.96957 13 5.5 13C5.76522 13 6.01957 13.1054 6.20711 13.2929C6.39464 13.4804 6.5 13.7348 6.5 14V15C6.5 15.5304 6.28929 16.0391 5.91421 16.4142C5.53914 16.7893 5.03043 17 4.5 17C4.23478 17 3.98043 17.1054 3.79289 17.2929C3.60536 17.4804 3.5 17.7348 3.5 18V20C3.5 20.2652 3.60536 20.5196 3.79289 20.7071C3.98043 20.8946 4.23478 21 4.5 21C6.0913 21 7.61742 20.3679 8.74264 19.2426C9.86786 18.1174 10.5 16.5913 10.5 15V5C10.5 4.46957 10.2893 3.96086 9.91421 3.58579C9.53914 3.21071 9.03043 3 8.5 3H5.5Z" stroke="white" stroke-width="2" stroke-linecap="round" stroke-linejoin="round"/>
</svg>
