<svg width="40" height="40" viewBox="0 0 40 40" fill="none" xmlns="http://www.w3.org/2000/svg">
<rect width="40" height="40" rx="6" fill="#FFD23D" fill-opacity="0.5"/>
<path d="M22 10V14C22 14.5304 22.2107 15.0391 22.5858 15.4142C22.9609 15.7893 23.4696 16 24 16H28M16 26V24M20 26V22M24 26V20M23 10H14C13.4696 10 12.9609 10.2107 12.5858 10.5858C12.2107 10.9609 12 11.4696 12 12V28C12 28.5304 12.2107 29.0391 12.5858 29.4142C12.9609 29.7893 13.4696 30 14 30H26C26.5304 30 27.0391 29.7893 27.4142 29.4142C27.7893 29.0391 28 28.5304 28 28V15L23 10Z" stroke="#876B0E" stroke-width="2" stroke-linecap="round" stroke-linejoin="round"/>
</svg>
