<svg width="40" height="40" viewBox="0 0 40 40" fill="none" xmlns="http://www.w3.org/2000/svg">
<rect width="40" height="40" rx="6" fill="#FFD23D" fill-opacity="0.5"/>
<path d="M18 15.5L16 18L18 20.5M22 15.5L24 18L22 20.5M29 23C29 23.5304 28.7893 24.0391 28.4142 24.4142C28.0391 24.7893 27.5304 25 27 25H15L11 29V13C11 12.4696 11.2107 11.9609 11.5858 11.5858C11.9609 11.2107 12.4696 11 13 11H27C27.5304 11 28.0391 11.2107 28.4142 11.5858C28.7893 11.9609 29 12.4696 29 13V23Z" stroke="#876B0E" stroke-width="2" stroke-linecap="round" stroke-linejoin="round"/>
</svg>
